<svg enable-background="new 0 0 342 107" viewBox="0 0 342 107" xmlns="http://www.w3.org/2000/svg" xmlns:xlink="http://www.w3.org/1999/xlink"><clipPath id="a"><path d="m-580.44 9.31h320.89v83.37h-320.89z"/></clipPath><g clip-path="url(#a)" transform="translate(591)"><path d="m-327.33 89.68c10.13-3.94 21.56-8.06 35.22-8.06 11.93 0 22.44 3.56 32.55 7.29v-11.46c-9.65-3.44-20.38-6.6-32.55-6.6-8.69.05-17.32 1.4-25.6 4.01-1.9 5.66-5.21 10.77-9.62 14.82" fill="#947768"/><path d="m-321.24 44.97c8.59-3.09 18.14-5.77 29.13-5.77 11.93 0 22.44 3.56 32.55 7.29v-11.46c-9.65-3.44-20.38-6.6-32.55-6.6-14.53 0-26.34 3.9-36.78 7.89 3.01 2.44 5.6 5.36 7.65 8.65" fill="#947768"/><path d="m-315.91 64.37c7.68-2.55 15.71-3.88 23.8-3.97 11.93 0 22.44 3.56 32.55 7.29v-11.46c-9.65-3.44-20.38-6.6-32.55-6.6-8.57.05-17.08 1.36-25.26 3.9.98 3.29 1.47 6.71 1.47 10.15.01.23-.01.46-.01.69" fill="#008498"/><path d="m-323.41 55.51c-.86-2.94-2.18-5.73-3.92-8.25-3.24-4.68-7.78-8.31-13.05-10.46 5.15-4.27 9.86-9.06 14.05-14.28v-13.07h-48.77v13.07h33.12c-6.1 7-16.28 13.14-26.37 17.87l5.9 11.18.09.09c6.64-6.14 17.01-5.74 23.16.9 6.14 6.64 5.74 17.01-.9 23.16-6.64 6.14-17.01 5.74-23.16-.9-1.68-1.81-2.92-3.98-3.64-6.34l-11.73 4.58c5.17 15.15 21.64 23.23 36.79 18.06 14.68-5.01 22.81-20.71 18.43-35.61" fill="#106a7a"/><path d="m-350.26 53.92c2.35 3.76 4.36 6.51 5.87 9.5 1.94 3.84 1.03 6.87-2.45 9.21-2.04 1.49-4.8 1.49-6.84 0-3.47-2.33-4.38-5.37-2.45-9.21 1.52-3 3.52-5.74 5.87-9.5" fill="#008498"/><g fill="#106a7a"><path d="m-566.92 57.45v14.43h-13.29v-62.57h20.51c12.42 0 23.98 4.6 23.98 20.33-.01 18.51-22.43 25.46-31.2 27.81m5.29-37.19h-5.04v25.46c5.04-1.39 16.51-4.6 16.51-15.64.01-7.13-4.69-9.82-11.47-9.82"/><path d="m-476.47 71.87h-13.47c-.65-4.33-1.52-8.62-2.61-12.86-9.26.32-18.41 2.11-27.11 5.3-.61 2.61-1.04 5.13-1.39 7.56h-13.47c3.39-20.85 11.21-41.71 23.11-62.56h11.9c11.92 20.86 19.74 41.71 23.04 62.56m-40.05-19.81c6.73-2.17 13.71-3.52 20.77-4-2.58-8.05-5.83-15.87-9.73-23.37-4.62 8.72-8.32 17.89-11.04 27.37"/><path d="m-454.4 57.45v14.43h-13.29v-62.57h20.51c12.42 0 23.98 4.6 23.98 20.33 0 18.51-22.42 25.46-31.2 27.81m5.3-37.19h-5.04v25.46c5.04-1.39 16.51-4.6 16.51-15.64 0-7.13-4.69-9.82-11.47-9.82"/><path d="m-413.82 9.31h13.29v62.56h-13.29z"/><path d="m-580.44 82.33h3.12c1.62 0 3.08.78 3.08 2.4-.03.85-.44 1.64-1.11 2.15 1.1.37 1.84 1.39 1.85 2.55 0 2.24-2.17 2.94-4.07 2.94h-2.87zm1.68 1.34v3.39c.82-.2 2.83-.8 2.83-2.15 0-.95-.91-1.24-1.59-1.24zm0 4.75v2.61h.99c1.13 0 2.55-.36 2.55-1.67 0-.86-.75-1.35-1.48-1.64-.65.29-1.34.53-2.06.7"/><path d="m-566.73 88.84v-.5c0-1.16-.28-1.71-1.84-1.71-.75.02-1.49.12-2.22.31v-1.34c.82-.22 1.66-.33 2.51-.33 2.38 0 3.25.84 3.25 2.62v4.49h-1.45l-.13-.5c-.67.45-1.47.67-2.27.64-1.67 0-2.38-.71-2.38-1.88 0-1.09.71-1.99 2.65-1.99.63-.02 1.26.05 1.88.19m0 2.03v-1.09c-.43-.11-.87-.16-1.31-.14-.84 0-1.46.2-1.46.91 0 .61.4.88 1.14.88.59.05 1.18-.15 1.63-.56"/><path d="m-557.42 86.82c-.65-.15-1.31-.22-1.98-.22-.88 0-1.21.28-1.21.7 0 .59.82.71 1.76 1.02 1.02.33 1.81.73 1.81 2.01 0 1.66-1.2 2.19-3.09 2.19-.73.01-1.47-.08-2.17-.26v-1.36c.7.16 1.42.25 2.15.26.82 0 1.39-.2 1.39-.88 0-.57-.6-.74-1.45-1-1.06-.33-2.03-.75-2.03-1.98 0-1.17.81-2.05 2.94-2.05.64 0 1.28.08 1.9.24z"/><path d="m-549.78 86.82c-.65-.15-1.31-.22-1.98-.22-.88 0-1.21.28-1.21.7 0 .59.82.71 1.76 1.02 1.02.33 1.81.73 1.81 2.01 0 1.66-1.2 2.19-3.09 2.19-.73.01-1.47-.08-2.17-.26v-1.36c.7.16 1.42.25 2.15.26.82 0 1.39-.2 1.39-.88 0-.57-.6-.74-1.45-1-1.06-.33-2.03-.75-2.03-1.98 0-1.17.81-2.05 2.94-2.05.64 0 1.28.08 1.9.24z"/><path d="m-545.87 82.43c.5.02.9.44.88.95s-.44.9-.95.88c-.49-.02-.88-.42-.88-.91.01-.51.44-.92.95-.92zm-.82 2.97h1.69v6.97h-1.68z"/><path d="m-541.86 85.4h1.7v.52c.69-.4 1.46-.62 2.26-.65 1.21-.1 2.27.8 2.38 2.01.01.15.01.3-.01.45v4.66h-1.69v-4.13c0-.92-.33-1.56-1.35-1.56-.55.03-1.09.18-1.59.43v5.25h-1.7z"/><path d="m-528.75 85.4h1.73c.28 1.91.84 3.78 1.65 5.53.8-1.76 1.35-3.62 1.63-5.53h1.73c-.43 2.45-1.28 4.8-2.49 6.97h-1.73c-1.24-2.16-2.09-4.52-2.52-6.97"/><path d="m-518.15 89.32c.17 1.28.88 1.83 2.51 1.83.74-.01 1.47-.09 2.19-.24v1.34c-.84.17-1.69.25-2.55.26-2.52 0-3.9-1.16-3.9-3.75 0-2.36 1.14-3.5 3.23-3.5s3.16 1.14 3.16 3.35v.71zm-.02-1.02h3v-.18c0-1.14-.59-1.6-1.46-1.6-.86-.01-1.44.43-1.54 1.78"/><path d="m-510.61 92.37v-6.97h1.69v1.21c.38-.78 1.13-1.31 1.99-1.41.19 0 .38.02.57.06v1.61c-.23-.06-.47-.09-.71-.08-.79.04-1.5.5-1.85 1.21v4.38z"/><path d="m-499.28 86.82c-.65-.15-1.31-.22-1.98-.22-.88 0-1.21.28-1.21.7 0 .59.82.71 1.76 1.02 1.02.33 1.81.73 1.81 2.01 0 1.66-1.2 2.19-3.09 2.19-.73.01-1.47-.08-2.17-.26v-1.36c.7.16 1.42.25 2.15.26.82 0 1.39-.2 1.39-.88 0-.57-.6-.74-1.45-1-1.06-.33-2.03-.75-2.03-1.98 0-1.17.81-2.05 2.94-2.05.64 0 1.28.08 1.9.24z"/><path d="m-492.12 88.84v-.5c0-1.16-.28-1.71-1.84-1.71-.75.02-1.49.12-2.22.31v-1.34c.82-.22 1.66-.33 2.51-.33 2.38 0 3.25.84 3.25 2.62v4.49h-1.45l-.13-.5c-.67.45-1.47.67-2.27.64-1.67 0-2.38-.71-2.38-1.88 0-1.09.71-1.99 2.65-1.99.63-.02 1.27.05 1.88.19m0 2.03v-1.09c-.43-.11-.87-.16-1.31-.14-.84 0-1.46.2-1.46.91 0 .61.4.88 1.14.88.59.05 1.18-.15 1.63-.56"/><path d="m-487.35 85.4h1.7v.52c.69-.4 1.46-.62 2.26-.65 1.21-.1 2.27.8 2.38 2.01.01.15.01.3-.01.45v4.66h-1.69v-4.13c0-.92-.33-1.56-1.35-1.56-.55.03-1.09.18-1.59.43v5.25h-1.7z"/><path d="m-478.63 85.4h1.14v-1.38l1.69-.54v1.92h2.03v1.32h-2.03v2.73c0 1.1.18 1.69 1.1 1.69.35 0 .71-.06 1.05-.17v1.35c-.49.14-1 .2-1.51.2-1.64 0-2.33-.75-2.33-3.04v-2.76h-1.15v-1.32z"/><path d="m-461.95 91.48c-.51.67-1.32 1.06-2.16 1.03-1.84 0-2.86-1.52-2.86-3.55 0-1.83.82-3.69 2.98-3.69.72-.02 1.42.25 1.94.74v-4.08h1.71v10.45h-1.49zm-.1-1.58v-2.6c-.35-.44-.89-.69-1.45-.68-1.14 0-1.76.99-1.76 2.33 0 1.28.56 2.13 1.63 2.13.73-.02 1.36-.49 1.58-1.18"/><path d="m-450.96 92.37h-1.45l-.15-.68c-.65.53-1.45.82-2.29.84-1.25.09-2.34-.86-2.42-2.11-.01-.14-.01-.29.01-.43v-4.59h1.67v4.14c0 1.32.78 1.53 1.25 1.53.61-.01 1.21-.21 1.7-.57v-5.1h1.67z"/><path d="m-437.38 82.33h1.73c-.58 3.52-1.75 6.91-3.46 10.04h-1.62c-1.72-3.12-2.89-6.52-3.46-10.04h1.71c.42 2.88 1.28 5.68 2.55 8.29 1.28-2.61 2.13-5.41 2.55-8.29"/><path d="m-432.2 82.43c.5.02.9.44.88.95-.02.5-.44.9-.95.88-.49-.02-.88-.42-.88-.91.01-.51.43-.92.95-.92zm-.82 2.97h1.69v6.97h-1.69z"/><path d="m-423.65 86.82c-.65-.15-1.31-.22-1.98-.22-.88 0-1.21.28-1.21.7 0 .59.82.71 1.76 1.02 1.02.33 1.81.73 1.81 2.01 0 1.66-1.2 2.19-3.09 2.19-.73.01-1.47-.08-2.17-.26v-1.36c.7.16 1.42.25 2.15.26.82 0 1.39-.2 1.39-.88 0-.57-.6-.74-1.45-1-1.06-.33-2.03-.75-2.03-1.98 0-1.17.81-2.05 2.94-2.05.64 0 1.28.08 1.9.24z"/><path d="m-421.23 85.4h1.14v-1.38l1.69-.54v1.92h2.03v1.32h-2.03v2.73c0 1.1.18 1.69 1.1 1.69.35 0 .71-.06 1.04-.17v1.35c-.49.14-1 .2-1.51.2-1.64 0-2.33-.75-2.33-3.04v-2.76h-1.14z"/><path d="m-413.75 92.37v-6.97h1.69v1.21c.38-.78 1.13-1.31 1.99-1.41.19 0 .38.02.57.06v1.61c-.23-.06-.47-.09-.71-.08-.79.04-1.5.5-1.85 1.21v4.38z"/><path d="m-405.69 89.32c.17 1.28.88 1.83 2.51 1.83.74-.01 1.47-.09 2.19-.24v1.34c-.84.17-1.69.25-2.55.26-2.52 0-3.9-1.16-3.9-3.75 0-2.36 1.14-3.5 3.23-3.5s3.16 1.14 3.16 3.35v.71zm-.01-1.02h3v-.18c0-1.14-.59-1.6-1.46-1.6-.86-.01-1.44.43-1.54 1.78"/></g></g></svg>